<?xml version="1.0" standalone="no"?>
<!DOCTYPE svg PUBLIC "-//W3C//DTD SVG 20010904//EN"
 "http://www.w3.org/TR/2001/REC-SVG-20010904/DTD/svg10.dtd">
<svg version="1.0" xmlns="http://www.w3.org/2000/svg"
 width="408.000000pt" height="612.000000pt" viewBox="0 0 408.000000 612.000000"
 preserveAspectRatio="xMidYMid meet">

<g transform="translate(0.000000,612.000000) scale(0.100000,-0.100000)"
fill="#000000" stroke="none">
<path d="M1495 6003 l-17 -28 23 22 c12 12 20 25 17 28 -3 3 -13 -7 -23 -22z"/>
<path d="M1511 5983 c-25 -27 -52 -57 -59 -68 l-13 -20 6 20 c4 11 9 27 12 35
3 8 -19 -20 -47 -63 -34 -52 -55 -76 -62 -69 -21 21 -124 -51 -176 -124 -16
-22 -37 -63 -46 -91 -9 -28 -26 -61 -36 -74 -11 -12 -21 -38 -22 -58 -6 -135
-5 -131 -23 -131 -8 0 -15 -4 -15 -10 0 -5 -12 -10 -27 -11 -28 -1 -28 -1 3
-10 18 -5 35 -16 38 -25 5 -12 2 -15 -11 -9 -10 4 -25 7 -33 6 -8 -1 -36 -1
-61 -1 -33 0 -51 -6 -64 -20 -14 -16 -15 -20 -4 -21 8 -1 3 -5 -11 -9 -17 -5
-19 -8 -7 -9 9 -1 17 -4 17 -7 0 -14 -22 -44 -32 -44 -6 0 -17 -8 -24 -17 -13
-17 -14 -17 -7 2 3 11 2 17 -2 12 -12 -11 -16 -77 -6 -96 6 -10 4 -28 -3 -46
-7 -17 -13 -50 -14 -74 -1 -24 -6 -49 -10 -55 -4 -6 -7 -40 -5 -76 1 -36 3
-126 3 -200 0 -138 7 -186 42 -300 13 -44 22 -107 25 -195 4 -80 11 -140 19
-157 8 -15 17 -71 20 -125 3 -59 10 -100 17 -105 16 -10 16 -9 5 47 -15 75
-16 638 -1 705 7 30 15 118 17 196 3 77 10 152 15 167 6 15 9 27 7 27 -12 0
102 203 141 252 46 58 60 68 102 75 13 2 33 11 45 19 13 8 26 11 29 8 4 -4 12
-2 19 3 7 6 37 13 66 17 30 4 61 11 70 15 18 9 54 24 87 37 11 4 26 6 33 5 7
-1 11 4 10 11 -2 7 7 14 20 16 12 2 22 7 22 11 0 4 58 7 129 8 108 0 196 8
329 27 14 2 21 -1 19 -8 -3 -8 18 -10 71 -8 93 4 320 -31 379 -60 47 -22 143
-103 143 -121 1 -18 47 -70 56 -64 5 3 10 -5 10 -17 1 -13 13 -40 26 -62 26
-41 27 -42 35 -74 3 -11 9 -20 13 -20 4 0 6 -11 5 -24 -2 -14 3 -27 12 -30 8
-3 11 -10 8 -16 -4 -6 -12 -7 -18 -3 -7 4 -6 -1 2 -11 16 -20 25 -69 10 -61
-5 4 -9 2 -9 -4 0 -5 6 -14 14 -18 8 -4 16 -14 18 -22 2 -8 20 -48 41 -89 20
-41 37 -82 37 -91 0 -9 7 -26 15 -38 8 -12 21 -57 29 -101 8 -44 19 -89 25
-100 6 -11 11 -38 11 -59 0 -21 6 -64 14 -95 7 -31 11 -90 10 -130 -4 -68 -2
-74 16 -74 16 0 20 7 20 34 0 18 -4 31 -9 28 -15 -10 -17 124 -4 185 11 48 11
62 -2 93 -9 21 -15 67 -15 111 0 87 -20 207 -77 460 -15 66 -21 133 -24 265
-1 76 -12 99 -69 149 -32 28 -50 52 -50 66 0 13 -7 28 -15 35 -8 7 -15 23 -15
35 0 22 -37 76 -70 102 -8 6 -12 15 -7 19 4 4 0 16 -10 26 -18 20 -10 39 9 20
17 -17 39 -15 32 2 -3 8 2 16 13 19 16 4 15 5 -3 6 -11 0 -29 8 -40 16 -10 8
-31 15 -46 15 -15 0 -30 5 -33 10 -3 6 -14 10 -23 10 -25 1 -67 36 -54 44 9 5
8 13 -1 29 -16 30 -59 77 -69 77 -15 0 -53 45 -50 60 3 16 -46 66 -55 56 -3
-3 -13 2 -21 11 -11 10 -17 12 -20 4 -2 -6 -8 -11 -13 -11 -6 0 -7 5 -4 10 8
14 3 13 -35 -7 -25 -12 -35 -13 -38 -4 -3 9 -7 9 -17 1 -9 -7 -31 -9 -62 -5
-77 11 -114 6 -161 -21 -51 -30 -113 -51 -94 -32 6 6 22 13 34 15 29 5 46 21
27 27 -66 21 -157 7 -238 -37 -42 -23 -58 -27 -75 -19 -55 25 -94 32 -120 22
-31 -11 -34 0 -5 18 12 7 18 16 15 19 -3 3 -12 0 -21 -7 -28 -23 -15 6 21 48
48 57 32 53 -25 -5z m239 -83 c-8 -6 -24 -16 -35 -22 l-20 -11 20 21 c11 11
27 21 35 21 13 1 13 0 0 -9z m637 -6 c-3 -3 -12 -4 -19 -1 -8 3 -5 6 6 6 11 1
17 -2 13 -5z m-540 -10 c-3 -3 -12 -4 -19 -1 -8 3 -5 6 6 6 11 1 17 -2 13 -5z
m-267 -81 c0 -7 -9 -13 -20 -13 -12 0 -17 5 -14 13 3 8 11 14 19 14 8 0 15 -6
15 -14z m-261 -43 c-12 -22 -23 -40 -26 -40 -8 0 7 53 19 67 22 28 27 11 7
-27z m-129 -352 c0 -6 -6 -5 -15 2 -8 7 -15 14 -15 16 0 2 7 1 15 -2 8 -4 15
-11 15 -16z m-369 -305 c-8 -15 -10 -15 -11 -2 0 17 10 32 18 25 2 -3 -1 -13
-7 -23z m2034 -33 c10 -11 16 -20 13 -20 -3 0 -13 9 -23 20 -10 11 -16 20 -13
20 3 0 13 -9 23 -20z m-59 -85 c9 -8 11 -15 6 -15 -5 0 -15 7 -22 15 -7 8 -9
15 -6 15 4 0 14 -7 22 -15z m39 -35 c3 -5 1 -10 -4 -10 -6 0 -11 5 -11 10 0 6
2 10 4 10 3 0 8 -4 11 -10z"/>
<path d="M2420 4550 c0 -5 7 -10 16 -10 8 0 12 5 9 10 -3 6 -10 10 -16 10 -5
0 -9 -4 -9 -10z"/>
<path d="M2465 4550 c-3 -5 -1 -10 4 -10 6 0 11 5 11 10 0 6 -2 10 -4 10 -3 0
-8 -4 -11 -10z"/>
<path d="M2505 4550 l-20 -9 20 -2 c48 -5 75 -4 75 3 0 4 -6 8 -14 8 -8 0 -20
2 -28 4 -7 3 -22 1 -33 -4z"/>
<path d="M2280 4546 c-3 -3 -20 -7 -38 -11 -45 -8 -137 -52 -159 -77 -18 -20
-18 -21 7 -13 23 7 24 6 10 -10 -8 -9 -15 -24 -16 -32 -4 -23 -25 -43 -45 -43
-11 0 -19 -7 -19 -15 0 -8 7 -15 15 -15 8 0 15 -4 15 -10 0 -5 -4 -10 -9 -10
-17 0 -20 -82 -4 -107 9 -13 13 -26 10 -30 -7 -6 20 -63 30 -63 3 0 3 16 0 37
-5 29 -2 40 15 54 11 10 24 16 29 13 5 -2 20 3 35 13 27 17 27 17 19 -7 -4
-14 -13 -36 -20 -50 l-13 -26 70 3 c39 1 73 4 76 7 3 3 15 6 26 7 21 0 21 1 1
9 -11 5 -35 9 -52 9 -18 1 -33 5 -33 10 0 5 19 26 42 47 l42 38 8 -30 c15 -59
73 -93 125 -73 33 12 50 35 58 77 7 38 23 40 59 7 43 -40 163 -60 140 -24 -9
14 -118 64 -161 74 -18 3 -33 10 -33 14 0 7 -16 9 -92 11 -47 1 -63 12 -34 23
8 3 45 5 83 3 66 -2 94 -11 193 -66 53 -29 70 -23 31 10 -73 63 -113 74 -255
75 -71 0 -122 2 -112 3 10 2 15 10 12 17 -3 10 0 12 11 8 10 -4 14 -2 10 4 -4
6 3 9 18 7 14 -1 53 4 87 13 35 8 90 16 123 18 32 1 61 8 63 14 2 6 10 11 18
11 29 0 0 30 -40 40 -22 6 -49 14 -60 17 -11 3 -16 1 -12 -5 8 -13 -46 -9
-119 8 -62 15 -148 24 -155 16z"/>
<path d="M2615 4530 c28 -12 37 -12 30 0 -3 6 -16 10 -28 9 -21 0 -21 -1 -2
-9z"/>
<path d="M2675 4508 c11 -6 28 -19 37 -29 17 -17 17 -19 0 -28 -14 -9 -12 -10
13 -10 17 0 24 3 17 6 -6 2 -10 8 -7 13 6 10 -51 60 -68 60 -7 0 -3 -6 8 -12z"/>
<path d="M1425 4471 c-4 -3 -26 -7 -48 -7 -79 -2 -226 -50 -272 -89 -12 -10
-4 -8 18 5 20 12 37 19 37 16 0 -3 11 -1 25 4 16 6 25 6 25 0 0 -6 -7 -10 -15
-10 -46 0 -175 -88 -175 -119 0 -8 3 -11 8 -7 4 4 7 13 7 19 0 13 93 73 101
64 3 -3 -11 -14 -33 -25 -35 -18 -85 -81 -66 -83 4 0 20 -2 35 -4 16 -2 29 2
32 11 3 8 12 14 19 14 8 0 20 7 27 15 6 7 33 17 58 21 26 3 52 10 57 14 6 4
33 11 60 14 28 4 59 9 70 11 11 3 15 2 8 -1 -7 -3 -9 -12 -6 -20 5 -14 -6 -18
-39 -15 -10 1 -18 -3 -18 -10 0 -6 -8 -9 -20 -6 -11 3 -20 2 -20 -2 0 -10 -81
-42 -90 -36 -5 3 -19 1 -32 -4 -19 -8 -20 -10 -4 -10 15 -1 12 -7 -16 -28 -39
-30 -71 -76 -61 -87 4 -3 22 8 41 26 l35 33 -27 -46 c-31 -54 -32 -59 -8 -59
10 0 13 -3 6 -8 -6 -4 -14 -16 -17 -26 -6 -14 -4 -17 5 -10 29 21 89 36 102
25 7 -6 15 -8 19 -5 3 3 15 1 26 -6 14 -7 21 -7 21 0 0 5 -5 10 -12 10 -20 0
-57 41 -51 56 3 8 18 21 32 29 27 13 28 13 40 -20 7 -19 23 -43 37 -54 14 -11
23 -25 19 -31 -3 -5 -2 -10 3 -10 6 0 12 7 16 15 3 8 15 15 26 15 36 0 70 44
70 90 0 22 4 40 9 40 4 0 25 -11 45 -25 20 -14 41 -25 47 -25 21 0 -6 -23 -50
-43 -25 -11 -40 -22 -33 -25 7 -2 20 0 30 4 25 11 93 14 87 4 -3 -5 -1 -11 4
-14 5 -4 13 -1 17 5 5 8 3 9 -6 4 -8 -5 -11 -4 -6 3 3 6 15 10 25 9 16 -1 18
-5 9 -20 -5 -10 -7 -30 -3 -45 6 -23 5 -24 -11 -11 -16 13 -16 12 -3 -8 9 -15
17 -19 23 -13 13 13 29 13 22 1 -10 -16 38 3 67 25 36 29 47 63 47 142 0 56
-4 74 -26 106 -15 21 -21 35 -14 31 9 -5 11 -4 6 3 -4 7 -12 12 -18 12 -5 0
-31 21 -57 48 -25 26 -59 53 -74 59 -15 7 -27 17 -27 23 0 5 -6 10 -14 10 -8
0 -16 5 -18 11 -2 5 -17 12 -33 15 -74 10 -94 11 -100 5z m49 -237 c19 -13 19
-14 -16 -14 -20 0 -38 6 -41 13 -3 9 -7 9 -20 -1 -8 -7 -21 -12 -29 -11 -22 4
-110 -42 -162 -85 -53 -43 -57 -33 -13 31 53 78 211 116 281 67z m213 -109 c0
-8 -12 -2 -29 13 -15 15 -28 28 -28 30 0 2 13 -4 28 -14 16 -9 29 -22 29 -29z
m43 -19 c0 -2 -7 -6 -15 -10 -8 -3 -15 -1 -15 4 0 6 7 10 15 10 8 0 15 -2 15
-4z"/>
<path d="M2760 4431 c0 -9 30 -24 36 -18 2 1 -6 8 -16 15 -11 7 -20 8 -20 3z"/>
<path d="M1205 4270 c3 -5 12 -7 20 -3 21 7 19 13 -6 13 -11 0 -18 -4 -14 -10z"/>
<path d="M2566 4211 c-3 -5 5 -8 18 -7 13 0 22 4 19 9 -6 10 -31 9 -37 -2z"/>
<path d="M780 3881 c0 -5 5 -13 10 -16 6 -3 10 -2 10 4 0 5 -4 13 -10 16 -5 3
-10 2 -10 -4z"/>
<path d="M2314 3614 c1 -48 4 -56 23 -61 13 -3 29 -3 37 0 8 3 35 -12 61 -35
36 -32 46 -46 42 -65 -2 -12 -1 -23 4 -23 4 0 6 -6 5 -12 -10 -47 -20 -68 -33
-68 -16 0 -15 -23 3 -79 7 -24 7 -24 -49 -18 -41 4 -59 2 -67 -8 -6 -8 -19
-14 -28 -14 -9 0 -44 -3 -76 -7 -53 -6 -59 -5 -53 9 6 16 -9 23 -36 18 -5 -1
-21 -4 -35 -6 -15 -2 -40 -7 -57 -11 l-30 -7 19 22 c11 11 26 21 34 21 8 0 23
11 33 24 11 14 33 27 49 31 17 4 30 11 30 16 0 6 5 7 10 4 7 -4 9 4 7 22 -3
15 -8 27 -13 26 -5 -1 -10 10 -10 23 -1 13 2 21 7 18 5 -3 9 4 9 15 0 12 7 21
15 21 8 0 12 6 9 14 -3 8 -1 17 5 21 19 11 12 25 -12 25 -44 0 -161 -99 -150
-126 2 -7 -5 -18 -17 -24 -20 -11 -21 -9 -18 13 3 26 -20 56 -39 50 -7 -3 -9
3 -6 16 3 12 1 21 -5 21 -6 0 -13 -13 -17 -30 -4 -16 -13 -30 -21 -30 -8 0
-14 -5 -14 -11 0 -6 -7 -4 -15 5 -8 8 -15 19 -15 25 0 6 -8 11 -17 12 -10 0
-36 2 -58 5 -56 7 -125 6 -125 -2 0 -8 34 -44 42 -44 5 0 18 -10 30 -22 20
-20 21 -21 2 -35 -18 -13 -18 -14 4 -19 12 -4 22 -8 22 -11 0 -11 -32 -64 -37
-60 -2 3 0 14 6 25 6 12 11 24 11 29 -1 4 -8 -5 -16 -21 -18 -32 -5 -58 19
-38 10 9 16 9 25 0 6 -6 35 -12 64 -13 29 -1 66 -3 82 -4 30 -1 29 -14 -2 -16
-31 -2 -176 -36 -241 -56 -76 -23 -89 -17 -67 35 12 30 13 41 3 57 -13 21 -28
26 -25 7 2 -8 -7 -12 -24 -11 -21 2 -28 -2 -28 -16 0 -13 -9 -20 -30 -23 -17
-3 -30 0 -31 6 -1 6 -6 -9 -13 -34 -9 -32 -9 -53 -2 -73 8 -21 8 -30 -2 -36
-10 -6 -8 -20 8 -64 12 -32 23 -57 25 -57 3 0 11 13 19 28 8 15 31 37 50 47
20 11 36 23 36 27 0 16 36 7 53 -12 19 -23 49 -27 41 -6 -8 22 60 40 156 42
99 2 162 14 207 37 36 19 179 48 258 52 28 2 68 6 90 10 37 6 44 4 72 -25 30
-30 31 -31 38 -11 3 12 13 21 20 21 8 0 13 9 12 20 -1 12 -7 18 -14 16 -14 -6
-27 10 -15 18 12 7 13 64 1 71 -5 4 -9 11 -9 17 0 7 6 6 15 -2 12 -10 15 -10
15 4 0 19 16 21 24 4 3 -7 4 8 3 34 -1 27 -5 48 -8 48 -8 0 -32 51 -35 71 -2
28 -53 109 -67 109 -3 0 -31 18 -64 39 -32 22 -70 42 -84 44 -24 5 -25 3 -25
-49z m-190 -178 c-6 -15 -24 -23 -24 -11 0 8 24 34 28 30 1 -1 0 -10 -4 -19z"/>
<path d="M1597 3478 c-4 -12 -4 -24 -2 -26 7 -8 35 20 35 34 0 23 -27 16 -33
-8z"/>
<path d="M1653 3478 c2 -23 5 -25 22 -15 16 8 17 11 5 15 -8 3 -18 10 -22 15
-3 6 -5 -1 -5 -15z"/>
<path d="M1216 3272 c-3 -5 1 -15 9 -22 21 -17 27 -9 10 13 -7 10 -16 14 -19
9z"/>
<path d="M2128 3038 c-27 -9 -39 -28 -18 -28 16 0 60 23 60 32 0 10 -7 9 -42
-4z"/>
<path d="M1748 3034 c-18 -17 16 -41 72 -49 3 0 11 -4 19 -9 19 -12 142 -16
164 -5 18 10 24 49 7 49 -5 0 -10 -5 -10 -10 0 -6 -11 -3 -25 6 -19 13 -28 14
-39 5 -10 -8 -16 -9 -21 -2 -3 6 -34 10 -68 8 -34 -1 -69 2 -78 6 -8 4 -18 5
-21 1z"/>
<path d="M1495 2940 c-3 -5 -1 -10 4 -10 6 0 11 5 11 10 0 6 -2 10 -4 10 -3 0
-8 -4 -11 -10z"/>
<path d="M1990 2898 c0 -15 5 -28 11 -30 6 -2 12 -16 12 -31 0 -38 14 -43 22
-7 8 37 25 49 26 18 1 -17 3 -18 6 -5 2 9 9 15 14 12 12 -8 11 2 -1 26 -8 15
-17 18 -37 13 -19 -5 -30 -2 -40 11 -12 18 -13 17 -13 -7z"/>
<path d="M2740 2780 c-18 -26 -27 -30 -49 -25 -16 3 -21 2 -13 -3 11 -7 11
-14 1 -36 -12 -26 -14 -27 -26 -10 -12 16 -13 15 -7 -14 5 -25 3 -32 -10 -32
-9 0 -16 -4 -16 -8 0 -5 -12 -23 -27 -40 -20 -25 -29 -29 -35 -20 -6 9 -8 7
-4 -7 6 -24 -18 -60 -33 -50 -8 4 -8 13 1 28 10 20 10 21 -6 8 -12 -10 -15
-22 -11 -43 6 -23 3 -28 -13 -28 -20 0 -36 22 -41 59 0 5 -9 12 -18 16 -15 5
-16 4 -5 -6 18 -19 15 -39 -8 -39 -11 0 -20 -4 -20 -10 0 -5 -7 -10 -15 -10
-8 0 -15 -6 -15 -12 -1 -7 -9 -3 -20 10 -11 13 -24 21 -30 17 -5 -3 -10 0 -10
7 -1 8 -6 6 -15 -6 -15 -20 -15 -20 -15 0 -1 19 -1 19 -15 0 -8 -10 -12 -24
-9 -30 3 -6 -1 -3 -9 7 -11 14 -16 15 -20 5 -4 -11 -6 -11 -6 0 -1 10 -5 9
-18 -3 -11 -12 -25 -15 -46 -11 -18 4 -36 1 -45 -6 -13 -10 -14 -10 -8 0 4 6
2 12 -3 12 -6 0 -11 -6 -11 -12 0 -10 -3 -9 -9 1 -6 10 -10 10 -16 2 -5 -9
-13 -8 -31 4 -13 8 -24 12 -24 8 0 -5 -4 -3 -8 3 -10 16 -98 24 -112 10 -7 -7
-10 -6 -10 5 0 7 -6 2 -14 -12 -7 -15 -11 -39 -9 -53 6 -31 -16 -36 -24 -6 -4
16 -8 18 -19 9 -8 -6 -14 -8 -14 -3 0 5 -5 2 -10 -6 -7 -12 -10 -12 -10 -1 0
8 -6 11 -16 7 -11 -4 -18 1 -21 15 -5 19 -7 20 -18 6 -16 -22 -38 -5 -39 31
-1 25 -4 28 -21 22 -14 -5 -22 -2 -30 14 -6 12 -22 22 -38 24 -15 2 -27 8 -27
13 0 5 8 9 17 7 11 -2 18 4 20 17 l3 20 -9 -20 c-9 -18 -10 -18 -10 -2 -1 10
-5 16 -10 13 -5 -4 -12 0 -15 6 -3 7 -4 4 -1 -8 3 -13 -2 -27 -14 -38 -18 -17
-19 -17 -26 3 -3 12 -11 19 -16 16 -5 -4 -9 1 -9 9 0 9 -5 16 -11 16 -6 0 -9
7 -5 15 3 9 0 15 -10 15 -8 0 -13 4 -10 9 3 5 -3 11 -13 14 -12 3 -22 -1 -25
-10 -4 -11 -2 -13 9 -9 8 3 15 1 15 -4 0 -6 -5 -10 -12 -10 -6 0 -3 -6 8 -14
10 -8 16 -17 13 -20 -3 -3 -20 8 -38 24 -18 17 -34 30 -37 30 -15 0 7 -28 81
-102 58 -59 85 -93 85 -109 1 -34 23 -59 54 -59 17 0 26 -5 26 -16 0 -14 7
-15 41 -10 25 4 46 2 55 -4 7 -7 26 -12 42 -14 18 -1 39 -13 53 -30 22 -24 27
-26 53 -16 23 9 27 8 23 -4 -8 -19 17 -28 47 -16 17 6 26 5 30 -3 3 -9 5 -9 5
1 1 6 6 12 12 12 5 0 7 -5 4 -10 -4 -6 7 -8 29 -6 25 4 38 0 44 -10 6 -11 16
-13 35 -9 33 9 34 18 5 34 -22 11 -22 11 6 7 34 -5 58 2 51 14 -3 5 9 12 27
15 18 4 56 20 84 36 28 15 55 25 58 21 4 -3 10 -2 14 4 4 5 26 18 50 28 30 14
39 22 30 28 -10 7 -10 11 3 21 9 6 14 18 12 25 -6 16 5 16 21 -1 16 -15 -1
-36 -24 -29 -13 3 -13 2 -1 -7 10 -6 21 -6 32 0 12 6 19 5 21 -3 3 -8 14 -8
41 1 38 13 47 26 25 34 -7 2 -10 8 -6 12 4 4 14 2 23 -5 12 -10 15 -10 15 4 0
9 11 27 24 39 16 15 22 28 16 37 -9 18 5 60 20 60 5 0 10 7 10 15 0 8 4 15 9
15 5 0 12 8 16 19 3 10 17 31 31 47 37 42 58 74 51 80 -2 3 -15 -9 -27 -26z
m-1118 -245 c0 -5 -5 -11 -11 -13 -6 -2 -11 4 -11 13 0 9 5 15 11 13 6 -2 11
-8 11 -13z m55 -51 c-3 -3 -12 -4 -19 -1 -8 3 -5 6 6 6 11 1 17 -2 13 -5z
m-67 -64 c0 -5 -4 -10 -10 -10 -5 0 -10 5 -10 10 0 6 5 10 10 10 6 0 10 -4 10
-10z"/>
<path d="M1305 2730 c3 -5 8 -10 11 -10 2 0 4 5 4 10 0 6 -5 10 -11 10 -5 0
-7 -4 -4 -10z"/>
<path d="M1340 2706 c0 -16 26 -40 33 -29 2 4 -4 16 -15 26 -13 13 -18 14 -18
3z"/>
<path d="M1481 2684 c0 -11 3 -14 6 -6 3 7 2 16 -1 19 -3 4 -6 -2 -5 -13z"/>
<path d="M1545 2650 c-4 -12 -5 -24 -2 -27 3 -2 8 5 12 17 4 12 5 24 2 27 -3
2 -8 -5 -12 -17z"/>
<path d="M1522 2640 c0 -14 2 -19 5 -12 2 6 2 18 0 25 -3 6 -5 1 -5 -13z"/>
<path d="M2920 2653 c1 -20 30 -125 53 -188 24 -66 25 -76 15 -155 -11 -93
-39 -175 -173 -510 -171 -428 -205 -519 -273 -745 -58 -192 -236 -733 -258
-785 -8 -18 -32 132 -35 210 -1 30 -4 46 -6 36 -4 -15 -9 -11 -22 20 -13 27
-15 41 -7 46 8 6 8 8 -1 8 -6 0 -18 3 -27 6 -13 5 -16 -1 -16 -29 0 -45 9 -69
23 -60 5 3 7 1 4 -5 -4 -5 6 -39 23 -74 39 -82 39 -138 0 -256 -16 -50 -30
-110 -30 -132 l0 -40 945 0 945 0 0 914 0 913 -67 30 c-38 17 -135 61 -218 97
-82 37 -224 102 -315 144 -162 76 -166 79 -260 172 -81 80 -104 111 -148 195
-29 55 -70 121 -93 148 -37 43 -59 58 -59 40z"/>
<path d="M2480 2588 c0 -9 -5 -18 -12 -20 -6 -2 -8 -10 -4 -17 6 -9 12 -7 23
9 11 16 12 25 4 33 -8 8 -11 7 -11 -5z"/>
<path d="M1347 2508 c-14 -29 -36 -79 -50 -110 -20 -44 -35 -63 -69 -83 -23
-15 -56 -36 -71 -47 -40 -28 -203 -82 -386 -128 -149 -38 -301 -102 -411 -172
-31 -20 -52 -24 -185 -29 -83 -3 -156 -9 -163 -13 -9 -5 -12 -223 -12 -967 l0
-959 965 0 c531 0 965 2 965 4 0 2 -36 176 -81 387 -44 211 -107 514 -139 672
-85 410 -139 610 -224 826 -20 51 -53 156 -73 234 -35 135 -37 149 -35 290 1
81 0 147 -2 147 -3 0 -16 -24 -29 -52z"/>
<path d="M1634 2123 c51 -53 61 -60 77 -50 24 15 24 27 0 27 -10 0 -24 7 -31
15 -7 8 -16 12 -21 10 -4 -3 -16 3 -26 13 -51 50 -50 37 1 -15z"/>
<path d="M1783 2067 c-9 -14 -45 -17 -54 -4 -3 5 -9 2 -12 -7 -4 -9 -3 -15 1
-15 18 3 33 -2 28 -9 -7 -11 73 -87 143 -137 54 -39 123 -57 136 -36 4 7 -5 9
-25 7 -20 -2 -29 1 -27 8 4 12 28 13 70 3 21 -6 27 -4 27 9 0 10 -6 14 -14 11
-8 -3 -17 1 -20 9 -3 9 -10 12 -16 9 -5 -3 -10 1 -10 11 0 9 -20 35 -45 58
-25 24 -45 39 -45 35 0 -5 -7 -6 -16 -2 -8 3 -13 11 -10 18 5 13 -22 30 -32
20 -3 -3 1 -5 8 -5 7 0 11 -3 7 -6 -3 -3 -19 3 -35 15 -35 24 -48 26 -59 8z
m-6 -53 c-9 -9 -28 6 -21 18 4 6 10 6 17 -1 6 -6 8 -13 4 -17z m38 -34 c3 -5
1 -10 -4 -10 -6 0 -11 5 -11 10 0 6 2 10 4 10 3 0 8 -4 11 -10z"/>
<path d="M2493 1953 c15 -4 16 -7 5 -21 -12 -15 -11 -16 5 -3 24 19 21 31 -5
30 -18 -1 -19 -2 -5 -6z"/>
<path d="M2455 1938 c-3 -9 -17 -19 -31 -22 -13 -4 -24 -11 -24 -17 0 -13 40
-2 59 16 7 7 11 19 8 27 -3 10 -6 9 -12 -4z"/>
<path d="M2225 1743 c-14 -14 -21 -14 -37 -4 -16 10 -19 9 -16 -6 2 -13 -2
-17 -16 -15 -17 3 -18 2 -7 -12 14 -16 3 -22 -15 -8 -5 4 1 -3 13 -16 13 -13
23 -30 23 -39 0 -11 7 -8 25 13 14 16 23 35 20 42 -2 7 3 16 13 20 9 4 18 15
18 25 2 21 0 21 -21 0z"/>
<path d="M2106 932 c-20 -39 -20 -44 2 -40 12 3 25 -11 45 -47 29 -52 29 -50
-8 54 l-23 63 -16 -30z"/>
</g>
</svg>
